<svg id="Layer_1"  xmlns="http://www.w3.org/2000/svg" viewBox="0 0 570.15 123">
  <defs>
    <style>
      .cls-1 {
        fill: #e7e8e8;
      }

      .cls-2 {
        fill: #ffcd33;
      }
    </style>
  </defs>
  <path class="cls-1" d="M327.91,226.85c-5.28,5.64-16,9.48-26.88,9.48-25.68,0-43.32-17.16-43.32-43.32,0-24.12,15.24-43.32,43-43.32,10.92,0,20,3.48,25.56,8.52l-6.6,10.92a31.78,31.78,0,0,0-19-5.64c-15.6,0-27.36,11.28-27.36,29.52,0,17.52,11.88,29.52,29,29.52a32.69,32.69,0,0,0,19.92-6.72Z" transform="translate(-257.71 -131)"/>
  <g>
    <path class="cls-1" d="M529.75,165H505.27l-1.68,15.84c-4.92,48.84-15.84,56.76-32.4,54.36l.36-14.64c6.48.84,15-1.92,18.72-52.56l1.2-16.8h52.92v84H529.75Z" transform="translate(-257.71 -131)"/>
    <path class="cls-1" d="M620.82,199.3h-38.4v35.88H567.67v-84h14.76V185.5h38.4V151.18h14.64v84H620.82Z" transform="translate(-257.71 -131)"/>
    <path class="cls-1" d="M658.75,151.18H673.5v70.2h36.84v-70.2H725.1v70.2h11.4v28.8H722.7v-15h-64Z" transform="translate(-257.71 -131)"/>
  </g>
  <path class="cls-1" d="M822.14,225.34c-8.12,7.38-20.12,10.89-31.19,10.89-26.95,0-44.48-17.17-44.48-43.37,0-24.18,15.5-43.37,42.82-43.37,21.41,0,38.58,15.13,38.58,38a48.16,48.16,0,0,1-.92,10H763.07c1.29,15.69,12.74,24.92,29,24.92,10.71,0,20.12-3.69,25.47-8.67Zm-60-39.87h50.39c-.74-13.66-9.6-22.15-24-22.15C773.41,163.32,763.81,172.74,762.15,185.47Z" transform="translate(-257.71 -131)"/>
  <path class="cls-2" d="M400.5,254A61.5,61.5,0,1,1,462,192.5,61.57,61.57,0,0,1,400.5,254Zm0-114A52.5,52.5,0,1,0,453,192.5,52.56,52.56,0,0,0,400.5,140Z" transform="translate(-257.71 -131)"/>
</svg>
