<?xml version="1.0" encoding="utf-8"?><svg xmlns="http://www.w3.org/2000/svg" xmlns:xlink="http://www.w3.org/1999/xlink"><symbol viewBox="0 0 38.2 72.1" id="arr-next" xmlns="http://www.w3.org/2000/svg"><path d="M2.1 71.4l35.4-35.3L2.1.7l-.7.7 34.7 34.7L1.4 70.7z"/></symbol><symbol viewBox="0 0 38.2 72.1" id="arr-prev" xmlns="http://www.w3.org/2000/svg"><path d="M36.8 71.4L1.4 36.1 36.8.7l.7.7L2.8 36.1l34.7 34.6z"/></symbol><symbol viewBox="0 0 9 15" id="arrow" xmlns="http://www.w3.org/2000/svg"><path d="M5.94.318L.753 7.156v.334l5.185 6.838h2.497L3.9 7.332 8.436.318H5.939z"/></symbol><symbol viewBox="0 0 32 23" id="basket" xmlns="http://www.w3.org/2000/svg"><path d="M10.967 19.061h16.488a.91.91 0 0 0 .874-.66l3.636-12.727a.91.91 0 0 0-.874-1.159H8.871l-.65-2.924a.91.91 0 0 0-.888-.712H1.88a.909.909 0 1 0 0 1.818h4.725l3.282 14.77a2.731 2.731 0 0 0-1.644 2.503 2.73 2.73 0 0 0 2.728 2.727h16.485a.909.909 0 1 0 0-1.818H10.97a.91.91 0 0 1-.002-1.818zM29.886 6.333l-3.117 10.91h-15.07L9.275 6.333h20.61z"/></symbol><symbol viewBox="0 0 102 63" id="car" xmlns="http://www.w3.org/2000/svg"><path d="M101 30c0-10-17-11.833-25.5-11.5V52H101V30zM7 1h64v8H7zm0 8h64v30H7zM1 44h70v8H1z"/><circle cx="27.5" cy="53.5" r="8.5"/><circle cx="88.5" cy="53.5" r="8.5"/><circle cx="88.5" cy="53.5" r="4.5"/><circle cx="27.5" cy="53.5" r="4.5"/><path d="M81 21v12.5c.167 1.833 1.2 5.5 4 5.5h16.5"/></symbol><symbol viewBox="0 0 80 80" id="clock" xmlns="http://www.w3.org/2000/svg"><circle cx="40" cy="40" r="39"/><circle cx="40" cy="40" r="33"/><circle cx="40" cy="40" r="7"/><path d="M40 32V14m0 0l6 3.661M40 14l-6 3.661m11.452 17.177l8.943-8.943m0 0h-3.638m3.638 0v3.638"/></symbol><symbol viewBox="0 0 85 89" id="done" xmlns="http://www.w3.org/2000/svg"><circle cx="42.5" cy="43.5" r="19.5"/><path d="M34 45l6.5 6.5L52 40M42.5 2c-5 4.5-17.8 13.5-29 13.5s-12.667 12-12 18c1.667 18 12.2 54 41 54s39.333-36 41-54c1.333-6 .4-18-14-18s-24-9-27-13.5z"/><path d="M17.434 19.684c9.63 0 20.636-7.79 24.936-11.684 2.58 3.895 10.834 11.684 23.215 11.684 12.382 0 13.184 10.386 12.038 15.58C76.19 50.841 67.133 82 42.37 82 17.606 82 8.55 50.842 7.116 35.263c-.573-5.193.688-15.579 10.318-15.579z"/></symbol><symbol viewBox="0 0 80 80" id="earth" xmlns="http://www.w3.org/2000/svg"><circle cx="40" cy="40" r="39"/><path d="M41.519 2.025c-.169 2.7-1.722 8.101-6.582 8.101-6.076 0-9.62 2.026-9.62 5.064 0 3.038-2.026 11.139 2.025 9.62 4.05-1.519 6.076-4.557 10.126-4.557s11.14.506 12.658 2.532c1.52 2.025-.506 9.114 3.038 9.62 2.836.405 3.545 2.87 3.545 4.05l8.101-4.05c-1.519-1.013-3.95-3.038-1.519-3.038 3.038 0 7.595-1.013 8.101 3.038.507 4.05 1.013 5.57 2.532 5.57 1.215 0 2.532-3.714 3.038-5.57M2.025 44.557c1.013-.675 3.342-1.823 4.557-1.013 1.52 1.013 3.038 2.532 5.57 3.038 2.532.506 7.089-1.013 8.101 1.52 1.013 2.53-2.532 4.556 0 7.594 2.532 3.038 0 7.089-2.532 7.089-2.025 0-1.856 4.388-1.518 6.582v1.519m25.316-2.532c2.87-.675 8.608-3.139 8.608-7.595 0-4.455 2.025-5.57 3.037-5.57-1.18-1.35-2.835-4.657 0-7.088 3.545-3.038 5.57-4.05 0-7.088-4.455-2.43-5.57-6.752-5.57-8.608.17-1.52-.81-4.253-6.075-3.038-6.582 1.519-5.063-4.557-6.582-4.557-1.52 0-5.57.506-7.595 2.532-2.026 2.025-6.076 4.557-6.076 9.114 0 4.556 1.012 8.607 6.076 8.607 5.063 0 7.595-1.519 7.595 1.52 0 3.037 0 4.05 2.531 4.05 2.532 0 0 5.57 0 6.582 0 1.013.507 7.595 4.05 11.14zm20.253-16.709l.506 4.051-2.025 7.089c-1.013 2.362-3.24 6.177-4.05 2.531-1.013-4.557 1.518-3.038 1.012-5.063s-.95-5.063 2.025-5.063c2.38 0 2.68-2.363 2.532-3.545zM14.683 11.646c2.195 1.18 6.178 4.455 4.557 8.1-2.025 4.558-5.682 5.712-6.076 7.09-1.012 3.544-8.1 5.063-5.57 7.594 2.532 2.532-1.012 4.557-2.53 3.545-1.216-.81-2.87-2.7-3.545-3.545"/></symbol><symbol viewBox="0 0 32 32" id="fb" xmlns="http://www.w3.org/2000/svg"><path class="isvg_social" d="M32 16c0-8.835-7.165-16-16-16S0 7.165 0 16s7.165 16 16 16c.094 0 .188-.002.281-.004V19.541h-3.437v-4.006h3.437v-2.948c0-3.419 2.087-5.28 5.137-5.28 1.46 0 2.716.109 3.082.158v3.573h-2.103c-1.66 0-1.98.788-1.98 1.945v2.552h3.967l-.517 4.006h-3.45v11.84C27.104 29.466 32 23.304 32 16z"/></symbol><symbol viewBox="0 0 32 32" id="insta" xmlns="http://www.w3.org/2000/svg"><path d="M19.063 16a3.062 3.062 0 1 1-6.125 0 3.062 3.062 0 0 1 6.124 0z" class="jsvg_social"/><path d="M23.162 10.582a2.847 2.847 0 0 0-.687-1.057 2.845 2.845 0 0 0-1.056-.687c-.324-.126-.81-.275-1.706-.316-.97-.044-1.26-.054-3.713-.054-2.453 0-2.744.01-3.713.053-.895.041-1.382.191-1.706.317a2.84 2.84 0 0 0-1.056.687c-.305.297-.54.657-.687 1.056-.126.324-.276.81-.317 1.707-.044.968-.053 1.259-.053 3.712 0 2.453.01 2.744.053 3.713.041.896.19 1.382.317 1.706.147.399.382.76.687 1.056.296.305.657.54 1.056.687.324.126.81.276 1.706.317.97.044 1.26.053 3.713.053 2.453 0 2.744-.01 3.712-.053.896-.041 1.383-.19 1.707-.317a3.043 3.043 0 0 0 1.743-1.743c.126-.324.276-.81.317-1.706.044-.97.053-1.26.053-3.713 0-2.453-.01-2.744-.053-3.712-.041-.896-.19-1.383-.317-1.707zM16 20.718a4.718 4.718 0 1 1 0-9.436 4.718 4.718 0 0 1 0 9.436zm4.904-8.52a1.102 1.102 0 1 1 0-2.205 1.102 1.102 0 0 1 0 2.205z" class="jsvg_social"/><path d="M16 0C7.165 0 0 7.165 0 16s7.165 16 16 16 16-7.165 16-16S24.835 0 16 0zm9.132 19.788c-.044.978-.2 1.646-.427 2.23a4.698 4.698 0 0 1-2.687 2.687c-.584.227-1.252.382-2.23.427-.98.045-1.293.055-3.788.055s-2.808-.01-3.788-.055c-.978-.045-1.646-.2-2.23-.427a4.501 4.501 0 0 1-1.627-1.06 4.504 4.504 0 0 1-1.06-1.627c-.227-.584-.382-1.252-.427-2.23-.045-.98-.056-1.293-.056-3.788s.011-2.808.056-3.788c.044-.978.2-1.646.427-2.23a4.5 4.5 0 0 1 1.06-1.627 4.5 4.5 0 0 1 1.627-1.06c.584-.227 1.252-.382 2.23-.427.98-.045 1.293-.056 3.788-.056s2.808.011 3.788.056c.978.045 1.646.2 2.23.427.613.23 1.168.592 1.627 1.06.468.459.83 1.014 1.06 1.627.227.584.383 1.252.427 2.23.045.98.055 1.293.055 3.788s-.01 2.808-.055 3.788z" class="jsvg_social"/></symbol><symbol viewBox="0 0 32 32" id="linkedin" xmlns="http://www.w3.org/2000/svg"><path d="M16 0C7.165 0 0 7.165 0 16s7.165 16 16 16 16-7.165 16-16S24.835 0 16 0zm-4.65 24.188H7.455V12.463h3.897v11.723zM9.403 10.863h-.025c-1.308 0-2.153-.9-2.153-2.025 0-1.15.871-2.025 2.204-2.025 1.333 0 2.153.875 2.179 2.025 0 1.125-.846 2.025-2.205 2.025zm16 13.325h-3.897v-6.272c0-1.576-.564-2.651-1.974-2.651-1.076 0-1.717.725-2 1.425-.102.25-.127.6-.127.95v6.547h-3.897s.051-10.623 0-11.723h3.897v1.66c.517-.799 1.444-1.935 3.511-1.935 2.564 0 4.486 1.675 4.486 5.276v6.723z" class="ksvg_social"/></symbol><symbol viewBox="0 0 122 74" id="people" xmlns="http://www.w3.org/2000/svg"><path d="M72.919 16.921c.183.588.328 1.195.432 1.817l-.986.165a13.1 13.1 0 0 1 0 4.325l.986.165c-.104.622-.25 1.229-.432 1.817l-.955-.297a12.296 12.296 0 0 1-1.969 3.822l.794.608a12.68 12.68 0 0 1-1.241 1.396l-.696-.718a10.85 10.85 0 0 1-3.566 2.317l.367.93c-.576.227-1.174.408-1.788.538l-.207-.978a10.178 10.178 0 0 1-4.226 0l-.208.978a11.21 11.21 0 0 1-1.788-.538l.367-.93a10.85 10.85 0 0 1-3.565-2.317l-.696.718a12.67 12.67 0 0 1-1.241-1.396l.794-.608a12.292 12.292 0 0 1-1.97-3.822l-.954.297a13.764 13.764 0 0 1-.432-1.817l.986-.165a13.111 13.111 0 0 1 0-4.325l-.986-.165a13.74 13.74 0 0 1 .432-1.817l.955.297a12.292 12.292 0 0 1 1.969-3.822l-.794-.608a12.67 12.67 0 0 1 1.24-1.396l.697.718a10.853 10.853 0 0 1 3.565-2.317l-.367-.93a11.213 11.213 0 0 1 1.788-.538l.208.978a10.173 10.173 0 0 1 4.226 0l.207-.978c.614.13 1.212.31 1.788.538l-.367.93a10.853 10.853 0 0 1 3.566 2.317l.696-.718c.445.431.86.898 1.241 1.396l-.794.608a12.296 12.296 0 0 1 1.969 3.822l.955-.297z"/><path d="M65.363 18.485c-5.672 0-8.545-4.501-9.272-6.272 0 6.492-6.544 7.302-7.09 7.302-.436 0-1.272-1.4-1.636-2.58C47.001 11.622 49.328 1 61.545 1c12.216 0 14.543 9.836 14.18 14.754-1.091.59-4.69 2.73-10.362 2.73zM54.659 31.319v6.271m0 0L43.75 43.492c-1.272.197-3.927 1.652-4.363 5.902m15.27-11.804l6.545 5.902V73M39.388 49.394c-.436 4.249-.182 17.508 0 23.606m0-23.606c.546-1.18 2.182-2.833 4.363 0 2.727 3.54 4.363 5.901 4.363 8.852V73"/><path d="M67.507 31.319v6.271m0 0l10.908 5.902c1.272.197 3.926 1.652 4.363 5.902M67.507 37.59l-6.544 5.902V73m21.815-23.606c.436 4.249.181 17.508 0 23.606m0-23.606c-.546-1.18-2.182-2.833-4.363 0-2.727 3.54-4.363 5.901-4.363 8.852V73M24.545 25.644a9.91 9.91 0 0 1 .71 1.926l-.968.248c.186.73.286 1.5.286 2.297 0 .797-.1 1.567-.287 2.297l.97.247a9.927 9.927 0 0 1-.711 1.926l-.897-.441c-.699 1.418-1.75 2.588-3.015 3.377l.53.848a8.415 8.415 0 0 1-1.86.868l-.308-.951a7.182 7.182 0 0 1-2.22.35 7.18 7.18 0 0 1-2.221-.35l-.309.95a8.415 8.415 0 0 1-1.859-.867l.53-.848c-1.265-.789-2.317-1.959-3.015-3.377l-.897.441a9.926 9.926 0 0 1-.71-1.926l.968-.247a9.266 9.266 0 0 1-.287-2.297c0-.798.1-1.568.287-2.297l-.969-.248c.173-.675.412-1.32.71-1.926l.898.442c.698-1.419 1.75-2.589 3.015-3.377l-.53-.849a8.415 8.415 0 0 1 1.86-.867l.308.95a7.184 7.184 0 0 1 2.22-.35 7.21 7.21 0 0 1 2.221.35l.308-.95a8.416 8.416 0 0 1 1.86.867l-.53.849c1.265.788 2.316 1.958 3.015 3.377l.897-.442z"/><path d="M19.574 28.222c-4.16 0-6.266-3.3-6.799-4.599 0 4.76-4.8 5.355-5.2 5.355-.319 0-.932-1.027-1.2-1.893C6.11 23.19 7.816 15.4 16.776 15.4c8.958 0 10.665 7.213 10.398 10.82-.8.433-3.44 2.002-7.599 2.002zM12.375 37.378v4.855m0 0l-7.999 4.328c-.933.144-2.88 1.212-3.2 4.328m11.2-8.656l4.798 4.328V68.2M1.177 50.888c-.32 3.116-.134 12.84 0 17.311m0-17.311c.4-.866 1.6-2.078 3.2 0 1.999 2.596 3.199 4.328 3.199 6.492V68.2"/><path d="M21.797 37.378v4.855m0 0l7.999 4.328c.933.144 2.88 1.212 3.2 4.328m-11.199-8.656l-4.8 4.328V68.2m15.998-17.312c.32 3.116.134 12.84 0 17.311m0-17.311c-.4-.866-1.6-2.078-3.199 0-2 2.596-3.2 4.328-3.2 6.492V68.2m85.777-42.556a9.91 9.91 0 0 1 .71 1.926l-.969.248c.187.73.287 1.5.287 2.297 0 .797-.1 1.567-.287 2.297l.969.247a9.907 9.907 0 0 1-.71 1.926l-.897-.441c-.699 1.418-1.75 2.588-3.015 3.377l.529.848a8.416 8.416 0 0 1-1.859.868l-.308-.951a7.18 7.18 0 0 1-2.221.35 7.179 7.179 0 0 1-2.22-.35l-.309.95a8.416 8.416 0 0 1-1.859-.867l.53-.848c-1.265-.789-2.317-1.959-3.015-3.377l-.897.441a9.928 9.928 0 0 1-.71-1.926l.968-.247a9.266 9.266 0 0 1-.287-2.297c0-.798.1-1.568.287-2.297l-.969-.248c.173-.675.412-1.32.71-1.926l.898.442c.698-1.419 1.75-2.589 3.015-3.377l-.53-.849a8.415 8.415 0 0 1 1.859-.867l.309.95a7.182 7.182 0 0 1 2.22-.35 7.21 7.21 0 0 1 2.221.35l.308-.95a8.415 8.415 0 0 1 1.859.867l-.529.849c1.265.788 2.316 1.958 3.015 3.377l.897-.442z"/><path d="M107.402 28.222c-4.159 0-6.266-3.3-6.799-4.599 0 4.76-4.8 5.355-5.199 5.355-.32 0-.933-1.027-1.2-1.893-.267-3.895 1.44-11.685 10.399-11.685 8.958 0 10.665 7.213 10.398 10.82-.8.433-3.439 2.002-7.599 2.002zM100.203 37.378v4.855m0 0l-7.999 4.328c-.933.144-2.88 1.212-3.2 4.328m11.199-8.656l4.799 4.328V68.2M89.005 50.888c-.32 3.116-.134 12.84 0 17.311m0-17.311c.4-.866 1.6-2.078 3.2 0 1.999 2.596 3.199 4.328 3.199 6.492V68.2"/><path d="M109.625 37.378v4.855m0 0l7.999 4.328c.933.144 2.88 1.212 3.2 4.328m-11.199-8.656l-4.799 4.328V68.2m15.998-17.312c.319 3.116.133 12.84 0 17.311m0-17.311c-.4-.866-1.6-2.078-3.2 0-2 2.596-3.199 4.328-3.199 6.492V68.2"/></symbol><symbol viewBox="0 0 24 24" id="search" xmlns="http://www.w3.org/2000/svg"><path d="M17.153 15.094h-1.084l-.385-.37a8.88 8.88 0 0 0 2.155-5.805A8.92 8.92 0 0 0 8.919 0 8.92 8.92 0 0 0 0 8.92a8.92 8.92 0 0 0 8.92 8.919c2.209 0 4.24-.81 5.804-2.155l.37.385v1.084L21.955 24 24 21.955l-6.847-6.86zm-8.234 0A6.167 6.167 0 0 1 2.744 8.92 6.167 6.167 0 0 1 8.92 2.744a6.167 6.167 0 0 1 6.175 6.175 6.167 6.167 0 0 1-6.175 6.175z" fill-opacity=".5"/></symbol><symbol viewBox="0 0 21 19" id="star" xmlns="http://www.w3.org/2000/svg"><path d="M10.5 1.618l1.882 5.792.112.345h6.453l-4.926 3.58-.294.213.112.346 1.882 5.792-4.927-3.58-.294-.213-.294.213-4.927 3.58 1.882-5.792.112-.346-.293-.213-4.927-3.58h6.453l.112-.345L10.5 1.618z"/></symbol><symbol viewBox="0 0 92 85" id="tissue" xmlns="http://www.w3.org/2000/svg"><path d="M89 69.667C83.667 74.333 66.733 83.8 41.667 84.333 16.6 84.867 4.11 74.778 1 69.667m0 0l30.667-57.334c1.637-1.637 4.687-3.985 8.833-6.12M1 69.667c2.35-2.861 6.852-7.038 13-10.715m59.667 10.715c-3.334 2.222-14.4 6.666-32 6.666s-24.223-4.444-25.334-6.666c3.334-3.778 13.067-11.334 25.334-11.334 12.266 0 18.444 7.556 20 11.334m12 0L91 12.333c-1.054-1.12-2.748-2.571-5-4.06M73.667 69.667C72.688 66.927 71.102 63.559 67 60M40.5 6.213L14 58.952M40.5 6.213A47.8 47.8 0 0 1 49 2.824M14 58.952a58.243 58.243 0 0 1 11-5.127m0 0l24-51m-24 51a52.46 52.46 0 0 1 10.5-2.44M49 2.824a45.799 45.799 0 0 1 8.5-1.629m0 0A44.102 44.102 0 0 1 72 2.227m-14.5-1.03l-22 50.188m0 0A49.826 49.826 0 0 1 41.667 51c.969 0 1.913.028 2.833.083m0 0l21-49.887L72 2.228M44.5 51.083c2.511.15 4.842.496 7 .998M72 2.228L51.5 52.08M72 2.228a44.97 44.97 0 0 1 7.5 2.523m-28 47.33c2.603.605 5.885 1.435 8 2.419m20-49.75l-20 49.75m20-49.75A43.352 43.352 0 0 1 86 8.274M59.5 54.5c3.01 1.4 5.414 3.69 7.5 5.5m0 0L86 8.273"/></symbol><symbol viewBox="0 0 32 32" id="youtube" xmlns="http://www.w3.org/2000/svg"><path d="M14.007 18.998L19.212 16l-5.205-2.998v5.996z" class="psvg_social"/><path d="M16 0C7.165 0 0 7.165 0 16s7.165 16 16 16 16-7.165 16-16S24.835 0 16 0zm9.998 16.016s0 3.245-.412 4.81a2.505 2.505 0 0 1-1.762 1.762C22.258 23 16 23 16 23s-6.242 0-7.823-.428a2.506 2.506 0 0 1-1.763-1.763C6.002 19.261 6.002 16 6.002 16s0-3.245.412-4.81a2.556 2.556 0 0 1 1.763-1.778C9.74 9 16 9 16 9s6.259 0 7.823.428c.857.23 1.532.906 1.763 1.763.428 1.564.412 4.825.412 4.825z" class="psvg_social"/></symbol></svg>