<svg width="32" height="23" viewBox="0 0 32 23" fill="none" xmlns="http://www.w3.org/2000/svg">
<path d="M10.9673 19.061H10.9688C10.9699 19.061 10.9711 19.0608 10.9723 19.0608H27.4546C27.8604 19.0608 28.2171 18.7916 28.3286 18.4014L31.965 5.67413C32.0434 5.39975 31.9884 5.10476 31.8168 4.87702C31.6449 4.64927 31.3762 4.51528 31.091 4.51528H8.87075L8.22089 1.59079C8.12832 1.17483 7.75948 0.878906 7.33334 0.878906H1.87879C1.37666 0.878906 0.969696 1.28587 0.969696 1.788C0.969696 2.29013 1.37666 2.69709 1.87879 2.69709H6.60418C6.71923 3.21532 9.71403 16.6921 9.88638 17.4675C8.92023 17.8875 8.24243 18.8508 8.24243 19.9698C8.24243 21.4736 9.46592 22.6971 10.9697 22.6971H27.4546C27.9567 22.6971 28.3637 22.2902 28.3637 21.788C28.3637 21.2859 27.9567 20.8789 27.4546 20.8789H10.9697C10.4685 20.8789 10.0606 20.471 10.0606 19.9698C10.0606 19.4694 10.4671 19.0622 10.9673 19.061ZM29.8857 6.33346L26.7687 17.2426H11.6989L9.27463 6.33346H29.8857Z" fill="black"/>
</svg>
