<svg width="85" height="89" viewBox="0 0 85 89" fill="none" xmlns="http://www.w3.org/2000/svg">
<circle cx="42.5" cy="43.5" r="19.5" stroke="black" stroke-width="2" stroke-dasharray="5 2"/>
<path d="M34 45L40.5 51.5L52 40M42.5 2C37.5 6.5 24.7 15.5 13.5 15.5C2.29995 15.5 0.833287 27.5 1.49995 33.5C3.16661 51.5 13.6999 87.5 42.5 87.5C71.3 87.5 81.8333 51.5 83.5 33.5C84.8333 27.5 83.9 15.5 69.5 15.5C55.1 15.5 45.5 6.5 42.5 2Z" stroke="black" stroke-width="2" stroke-dasharray="5 2"/>
<path d="M17.4343 19.6842C27.0645 19.6842 38.0704 11.8947 42.3696 8C44.9491 11.8947 53.2036 19.6842 65.5853 19.6842C77.9669 19.6842 78.7694 30.0702 77.623 35.2632C76.1899 50.8421 67.133 82 42.3696 82C17.6062 82 8.54931 50.8421 7.11626 35.2632C6.54303 30.0702 7.80413 19.6842 17.4343 19.6842Z" stroke="black" stroke-width="2" stroke-dasharray="5 2"/>
</svg>
