<svg width="80" height="80" viewBox="0 0 80 80" fill="none" xmlns="http://www.w3.org/2000/svg">
<circle cx="40" cy="40" r="39" stroke="black" stroke-width="2" stroke-dasharray="5 2"/>
<path d="M41.5189 2.02515C41.3502 4.72557 39.7974 10.1264 34.9367 10.1264C28.8607 10.1264 25.3164 12.1517 25.3164 15.1897C25.3164 18.2277 23.2911 26.3289 27.3417 24.81C31.3924 23.291 33.4177 20.253 37.4683 20.253C41.5189 20.253 48.6075 20.7593 50.1265 22.7846C51.6455 24.81 49.6202 31.8986 53.1645 32.4049C56 32.81 56.7088 35.2741 56.7088 36.4555L64.8101 32.4049C63.2911 31.3922 60.8607 29.3669 63.2911 29.3669C66.3291 29.3669 70.886 28.3543 71.3924 32.4049C71.8987 36.4555 72.405 37.9745 73.924 37.9745C75.1392 37.9745 76.4556 34.2614 76.962 32.4049M2.02527 44.5568C3.03793 43.8817 5.36704 42.734 6.58223 43.5441C8.10122 44.5568 9.62021 46.0758 12.1519 46.5821C14.6835 47.0884 19.2405 45.5694 20.2531 48.1011C21.2658 50.6327 17.7215 52.6581 20.2531 55.696C22.7848 58.734 20.2531 62.7846 17.7215 62.7846C15.6962 62.7846 15.8649 67.1728 16.2025 69.3669V70.8859M41.5189 68.3543C44.3881 67.6791 50.1265 65.215 50.1265 60.7593C50.1265 56.3036 52.1519 55.1897 53.1645 55.1897C51.9831 53.8395 50.3291 50.5315 53.1645 48.1011C56.7088 45.0631 58.7341 44.0505 53.1645 41.0125C48.7088 38.5821 47.5949 34.2614 47.5949 32.4049C47.7637 30.8859 46.7848 28.1517 41.5189 29.3669C34.9367 30.8859 36.4556 24.81 34.9367 24.81C33.4177 24.81 29.367 25.3163 27.3417 27.3416C25.3164 29.3669 21.2658 31.8986 21.2658 36.4555C21.2658 41.0125 22.2784 45.0631 27.3417 45.0631C32.405 45.0631 34.9367 43.5441 34.9367 46.5821C34.9367 49.6201 34.9367 50.6327 37.4683 50.6327C40 50.6327 37.4683 56.2024 37.4683 57.215C37.4683 58.2277 37.9746 64.8099 41.5189 68.3543ZM61.7721 51.6454L62.2784 55.696L60.2531 62.7846C59.2405 65.1475 57.0126 68.9618 56.2025 65.3163C55.1898 60.7593 57.7215 62.2783 57.2151 60.253C56.7088 58.2277 56.2658 55.1897 59.2405 55.1897C61.6202 55.1897 61.9198 52.8268 61.7721 51.6454Z" stroke="black" stroke-width="2" stroke-dasharray="5 2"/>
<path d="M14.6834 11.6455C16.8775 12.8269 20.8606 16.1012 19.2404 19.7468C17.2151 24.3037 13.5578 25.4584 13.1644 26.8354C12.1518 30.3797 5.06315 31.8987 7.5948 34.4303C10.1264 36.962 6.58221 38.9873 5.06322 37.9746C3.84803 37.1645 2.19403 35.2742 1.51892 34.4303" stroke="black" stroke-width="2" stroke-dasharray="5 2"/>
</svg>
