<svg width="122" height="74" viewBox="0 0 122 74" fill="none" xmlns="http://www.w3.org/2000/svg">
<path d="M72.9188 16.921C73.1018 17.5091 73.2468 18.116 73.3509 18.7384L72.3646 18.9033C72.4818 19.6039 72.5431 20.3265 72.5431 21.0655C72.5431 21.8045 72.4818 22.5271 72.3646 23.2277L73.3509 23.3927C73.2468 24.015 73.1018 24.622 72.9188 25.21L71.964 24.913C71.5247 26.3251 70.8508 27.6171 69.995 28.7351L70.789 29.343C70.4077 29.841 69.9928 30.3077 69.5479 30.739L68.8518 30.021C67.8154 31.0258 66.6074 31.8168 65.2863 32.3377L65.6532 33.268C65.0766 33.4954 64.4793 33.6763 63.8652 33.8065L63.6578 32.8283C62.9747 32.9731 62.2683 33.0491 61.5448 33.0491C60.8212 33.0491 60.1149 32.9731 59.4318 32.8283L59.2243 33.8065C58.6103 33.6763 58.013 33.4954 57.4364 33.268L57.8033 32.3377C56.4822 31.8168 55.2742 31.0258 54.2378 30.021L53.5417 30.739C53.0968 30.3077 52.6818 29.841 52.3006 29.343L53.0946 28.7351C52.2387 27.6171 51.5648 26.3251 51.1256 24.913L50.1707 25.21C49.9878 24.622 49.8427 24.015 49.7386 23.3927L50.7249 23.2277C50.6078 22.5271 50.5464 21.8045 50.5464 21.0655C50.5464 20.3265 50.6078 19.6039 50.7249 18.9033L49.7386 18.7384C49.8427 18.116 49.9878 17.5091 50.1707 16.921L51.1256 17.218C51.5648 15.8059 52.2387 14.5139 53.0946 13.3959L52.3006 12.788C52.6818 12.29 53.0968 11.8233 53.5417 11.392L54.2378 12.11C55.2742 11.1053 56.4822 10.3143 57.8033 9.79329L57.4364 8.86301C58.013 8.63563 58.6103 8.45474 59.2243 8.32453L59.4318 9.30278C60.1149 9.15792 60.8212 9.08191 61.5448 9.08191C62.2683 9.08191 62.9747 9.15792 63.6578 9.30278L63.8652 8.32453C64.4793 8.45474 65.0766 8.63563 65.6532 8.86301L65.2863 9.79329C66.6074 10.3143 67.8154 11.1053 68.8518 12.11L69.5479 11.392C69.9928 11.8233 70.4077 12.29 70.789 12.788L69.995 13.3959C70.8508 14.5139 71.5247 15.8059 71.964 17.218L72.9188 16.921Z" stroke="black" stroke-width="2" stroke-dasharray="5 2"/>
<path d="M65.3626 18.4846C59.6906 18.4846 56.8183 13.9836 56.0911 12.2131C56.0911 18.7049 49.5469 19.5154 49.0015 19.5154C48.5652 19.5154 47.7288 18.1148 47.3651 16.9344C47.0015 11.623 49.3284 1 61.5449 1C73.7614 1 76.0884 10.8361 75.7248 15.7541C74.634 16.3443 71.0345 18.4846 65.3626 18.4846Z" fill="white" stroke="black" stroke-width="2" stroke-dasharray="5 2"/>
<path d="M54.6587 31.3187V37.5902M54.6587 37.5902L43.7512 43.4918C42.4786 43.6886 39.8244 45.1443 39.3881 49.3935M54.6587 37.5902L61.2031 43.4918V73M39.3881 49.3935C38.9518 53.6427 39.2063 66.9017 39.3881 73M39.3881 49.3935C39.9336 48.2132 41.5698 46.5607 43.7512 49.3935C46.4779 52.9345 48.114 55.2951 48.114 58.2459C48.114 60.6066 48.114 69.0656 48.114 73" stroke="black" stroke-width="2" stroke-dasharray="5 2"/>
<path d="M67.507 31.3187V37.5902M67.507 37.5902L78.4146 43.4918C79.6871 43.6886 82.3413 45.1443 82.7776 49.3935M67.507 37.5902L60.9626 43.4918V73M82.7776 49.3935C83.2139 53.6427 82.9594 66.9017 82.7776 73M82.7776 49.3935C82.2322 48.2132 80.5959 46.5607 78.4146 49.3935C75.6878 52.9345 74.0517 55.2951 74.0517 58.2459C74.0517 60.6066 74.0517 69.0656 74.0517 73" stroke="black" stroke-width="2" stroke-dasharray="5 2"/>
<path d="M24.5449 25.6442C24.8432 26.2501 25.0827 26.895 25.2553 27.57L24.2865 27.8177C24.473 28.5471 24.5731 29.3173 24.5731 30.1147C24.5731 30.9121 24.473 31.6823 24.2865 32.4117L25.2553 32.6594C25.0827 33.3344 24.8432 33.9793 24.5449 34.5852L23.6477 34.1435C22.9493 35.5621 21.8976 36.7321 20.633 37.521L21.1622 38.3694C20.5812 38.7319 19.9583 39.0245 19.3033 39.2369L18.995 38.2856C18.2918 38.5136 17.5468 38.6361 16.7743 38.6361C16.0017 38.6361 15.2567 38.5136 14.5536 38.2856L14.2452 39.2369C13.5902 39.0245 12.9673 38.7319 12.3863 38.3694L12.9156 37.521C11.6509 36.7321 10.5992 35.5621 9.90081 34.1435L9.00365 34.5852C8.70535 33.9793 8.4658 33.3344 8.29322 32.6594L9.26205 32.4117C9.07556 31.6823 8.97546 30.9121 8.97546 30.1147C8.97546 29.3173 9.07556 28.5471 9.26205 27.8177L8.29322 27.57C8.4658 26.895 8.70535 26.2501 9.00365 25.6442L9.90081 26.0859C10.5992 24.6673 11.6509 23.4974 12.9156 22.7085L12.3863 21.86C12.9673 21.4976 13.5902 21.2049 14.2452 20.9926L14.5536 21.9438C15.2567 21.7159 16.0017 21.5934 16.7743 21.5934C17.5468 21.5934 18.2918 21.7159 18.995 21.9438L19.3034 20.9926C19.9583 21.2049 20.5812 21.4976 21.1622 21.86L20.633 22.7085C21.8976 23.4974 22.9493 24.6673 23.6477 26.0859L24.5449 25.6442Z" stroke="black" stroke-width="2" stroke-dasharray="5 2"/>
<path d="M19.5741 28.2222C15.4147 28.2222 13.3083 24.9215 12.775 23.6231C12.775 28.3838 7.97587 28.9781 7.57593 28.9781C7.25597 28.9781 6.64259 27.951 6.37589 27.0854C6.10926 23.1903 7.8157 15.4001 16.7745 15.4001C25.7333 15.4001 27.4397 22.6133 27.1731 26.2198C26.3732 26.6526 23.7335 28.2222 19.5741 28.2222Z" fill="white" stroke="black" stroke-width="2" stroke-dasharray="5 2"/>
<path d="M12.3751 37.3779V42.233M12.3751 42.233L4.37623 46.5609C3.44302 46.7052 1.49662 47.7727 1.17666 50.8888M12.3751 42.233L17.1744 46.5609V68.2003M1.17666 50.8888C0.856708 54.0049 1.04335 63.7282 1.17666 68.2003M1.17666 50.8888C1.57665 50.0232 2.77655 48.8114 4.37623 50.8888C6.37583 53.4855 7.57567 55.2167 7.57567 57.3806C7.57567 59.1117 7.57567 65.315 7.57567 68.2003" stroke="black" stroke-width="2" stroke-dasharray="5 2"/>
<path d="M21.797 37.3779V42.233M21.797 42.233L29.796 46.5609C30.7292 46.7052 32.6756 47.7727 32.9955 50.8888M21.797 42.233L16.9978 46.5609V68.2003M32.9955 50.8888C33.3155 54.0049 33.1288 63.7282 32.9955 68.2003M32.9955 50.8888C32.5955 50.0232 31.3956 48.8114 29.796 50.8888C27.7963 53.4855 26.5965 55.2167 26.5965 57.3806C26.5965 59.1117 26.5965 65.315 26.5965 68.2003" stroke="black" stroke-width="2" stroke-dasharray="5 2"/>
<path d="M112.373 25.6442C112.671 26.2501 112.911 26.895 113.083 27.57L112.114 27.8177C112.301 28.5471 112.401 29.3173 112.401 30.1147C112.401 30.9121 112.301 31.6823 112.114 32.4117L113.083 32.6594C112.911 33.3344 112.671 33.9793 112.373 34.5852L111.476 34.1435C110.777 35.5621 109.726 36.7321 108.461 37.521L108.99 38.3694C108.409 38.7319 107.786 39.0245 107.131 39.2369L106.823 38.2856C106.12 38.5136 105.375 38.6361 104.602 38.6361C103.83 38.6361 103.085 38.5136 102.382 38.2856L102.073 39.2369C101.418 39.0245 100.795 38.7319 100.214 38.3694L100.744 37.521C99.479 36.7321 98.4272 35.5621 97.7288 34.1435L96.8317 34.5852C96.5334 33.9793 96.2938 33.3344 96.1212 32.6594L97.0901 32.4117C96.9036 31.6823 96.8035 30.9121 96.8035 30.1147C96.8035 29.3173 96.9036 28.5471 97.0901 27.8177L96.1212 27.57C96.2938 26.895 96.5334 26.2501 96.8317 25.6442L97.7288 26.0859C98.4272 24.6673 99.479 23.4974 100.744 22.7085L100.214 21.86C100.795 21.4976 101.418 21.2049 102.073 20.9926L102.382 21.9438C103.085 21.7159 103.83 21.5934 104.602 21.5934C105.375 21.5934 106.12 21.7159 106.823 21.9438L107.131 20.9926C107.786 21.2049 108.409 21.4976 108.99 21.86L108.461 22.7085C109.726 23.4974 110.777 24.6673 111.476 26.0859L112.373 25.6442Z" stroke="black" stroke-width="2" stroke-dasharray="5 2"/>
<path d="M107.402 28.2222C103.243 28.2222 101.136 24.9215 100.603 23.6231C100.603 28.3838 95.8039 28.9781 95.404 28.9781C95.084 28.9781 94.4706 27.951 94.2039 27.0854C93.9373 23.1903 95.6437 15.4001 104.603 15.4001C113.561 15.4001 115.268 22.6133 115.001 26.2198C114.201 26.6526 111.562 28.2222 107.402 28.2222Z" fill="white" stroke="black" stroke-width="2" stroke-dasharray="5 2"/>
<path d="M100.203 37.3779V42.233M100.203 42.233L92.2042 46.5609C91.271 46.7052 89.3246 47.7727 89.0047 50.8888M100.203 42.233L105.002 46.5609V68.2003M89.0047 50.8888C88.6847 54.0049 88.8714 63.7282 89.0047 68.2003M89.0047 50.8888C89.4047 50.0232 90.6046 48.8114 92.2042 50.8888C94.2038 53.4855 95.4037 55.2167 95.4037 57.3806C95.4037 59.1117 95.4037 65.315 95.4037 68.2003" stroke="black" stroke-width="2" stroke-dasharray="5 2"/>
<path d="M109.625 37.3779V42.233M109.625 42.233L117.624 46.5609C118.557 46.7052 120.504 47.7727 120.824 50.8888M109.625 42.233L104.826 46.5609V68.2003M120.824 50.8888C121.143 54.0049 120.957 63.7282 120.824 68.2003M120.824 50.8888C120.424 50.0232 119.224 48.8114 117.624 50.8888C115.624 53.4855 114.425 55.2167 114.425 57.3806C114.425 59.1117 114.425 65.315 114.425 68.2003" stroke="black" stroke-width="2" stroke-dasharray="5 2"/>
</svg>
