<svg width="92" height="85" viewBox="0 0 92 85" fill="none" xmlns="http://www.w3.org/2000/svg">
<path d="M89 69.6667C83.6667 74.3333 66.7333 83.8 41.6667 84.3333C16.6 84.8667 4.11111 74.7778 1 69.6667M1 69.6667L31.6667 12.3333C33.3044 10.6956 36.3539 8.34777 40.5 6.21339M1 69.6667C3.35009 66.8057 7.85192 62.6292 14 58.9519M73.6667 69.6667C70.3333 71.8889 59.2667 76.3333 41.6667 76.3333C24.0667 76.3333 17.4444 71.8889 16.3333 69.6667C19.6667 65.8889 29.4 58.3333 41.6667 58.3333C53.9333 58.3333 60.1111 65.8889 61.6667 69.6667M73.6667 69.6667L91 12.3333C89.946 11.2135 88.2516 9.76169 86 8.27314M73.6667 69.6667C72.6881 66.9265 71.1018 63.5593 67 60M40.5 6.21339L14 58.9519M40.5 6.21339C42.9672 4.94332 45.8226 3.74882 49 2.82447M14 58.9519C17.2353 57.0167 20.9266 55.2198 25 53.8255M25 53.8255L49 2.82447M25 53.8255C28.2668 52.7073 31.7795 51.848 35.5 51.3841M49 2.82447C51.6259 2.06054 54.4718 1.48112 57.5 1.19604M57.5 1.19604C58.8536 1.06862 60.2436 1 61.6667 1C65.3804 1 68.8412 1.46728 72 2.22752M57.5 1.19604L35.5 51.3841M35.5 51.3841C37.4976 51.1351 39.5551 51 41.6667 51C42.6356 51 43.5799 51.0284 44.5 51.0833M44.5 51.0833L65.5 1.19604L72 2.22752M44.5 51.0833C47.011 51.233 49.3418 51.5793 51.5 52.0808M72 2.22752L51.5 52.0808M72 2.22752C74.7376 2.8864 77.2483 3.76532 79.5 4.75083M51.5 52.0808C54.1031 52.6857 57.3854 53.5163 59.5 54.5M79.5 4.75083L59.5 54.5M79.5 4.75083C82.0007 5.84529 84.1819 7.07119 86 8.27314M59.5 54.5C62.5096 55.9001 64.9138 58.1897 67 60M67 60L86 8.27314" stroke="black" stroke-dasharray="5 2"/>
</svg>
